<?xml version="1.0" encoding="iso-8859-1"?>
<!-- Generator: Adobe Illustrator 19.0.0, SVG Export Plug-In . SVG Version: 6.00 Build 0)  -->
<svg version="1.1" id="Capa_1" xmlns="http://www.w3.org/2000/svg" xmlns:xlink="http://www.w3.org/1999/xlink" x="0px" y="0px"
	 viewBox="0 0 512 512" style="enable-background:new 0 0 512 512;" xml:space="preserve">
<g>
	<g>
		<g>
			<path d="M489.704,22.296C475.326,7.918,456.21,0,435.877,0c-20.333,0-39.449,7.918-53.827,22.296
				c-3.905,3.905-3.905,10.237,0,14.143l13.888,13.888l-17.855,17.855C342.508,43.369,300.283,30,256,30
				c-44.283,0-86.508,13.369-122.082,38.182l-17.855-17.856l13.888-13.888c3.905-3.905,3.905-10.237,0-14.143
				C115.572,7.918,96.456,0,76.123,0S36.674,7.918,22.296,22.296S0,55.79,0,76.123s7.918,39.449,22.296,53.827
				c1.953,1.952,4.512,2.929,7.071,2.929s5.118-0.977,7.071-2.929l13.888-13.888l20.507,20.506C52.033,168.849,42,205.651,42,244
				c0,57.161,22.26,110.901,62.679,151.321c7.237,7.236,14.907,13.88,22.941,19.929c-1.564,0.744-3.113,1.499-4.628,2.276
				C88.261,435.35,68.259,460.954,64.616,492H10c-5.51,0-10,4.49-10,10s4.49,10,10,10h452c5.51,0,10-4.49,10-10s-4.49-10-10-10
				h-14.616c-3.643-31.046-23.645-56.65-58.375-74.474c-1.515-0.777-3.063-1.533-4.628-2.276
				c8.034-6.049,15.704-12.692,22.94-19.929C447.74,354.901,470,301.161,470,244c0-38.349-10.033-75.151-28.833-107.431
				l20.507-20.506l13.888,13.888c1.953,1.952,4.512,2.929,7.071,2.929s5.118-0.977,7.071-2.929
				C504.082,115.572,512,96.456,512,76.123S504.082,36.674,489.704,22.296z M29.991,108.112C23.496,98.789,20,87.725,20,76.123
				c0-14.991,5.838-29.085,16.438-39.685C47.038,25.838,61.132,20,76.123,20c11.602,0,22.666,3.496,31.989,9.991L29.991,108.112z
				 M64.469,101.92l37.451-37.451l16.019,16.02c-4.558,3.862-8.988,7.918-13.26,12.19c-8.367,8.367-15.943,17.313-22.717,26.734
				L64.469,101.92z M427.206,492H84.794c4.645-30.305,29.479-50.736,62.631-63.5C179.978,447.731,217.198,458,256,458
				c38.803,0,76.024-10.269,108.577-29.502C397.729,441.263,422.561,461.695,427.206,492z M450,244c0,106.972-87.028,194-194,194
				S62,350.972,62,244S149.028,50,256,50S450,137.028,450,244z M430.038,119.413c-6.774-9.421-14.35-18.367-22.717-26.734
				c-4.272-4.272-8.702-8.329-13.26-12.19l16.019-16.02l37.451,37.451L430.038,119.413z M482.009,108.112l-78.121-78.121
				C413.211,23.496,424.275,20,435.877,20c14.991,0,29.085,5.838,39.685,16.438C486.162,47.038,492,61.132,492,76.123
				C492,87.725,488.504,98.789,482.009,108.112z"/>
			<path d="M256,70.5c-95.393,0-173,77.607-173,173s77.607,173,173,173s173-77.607,173-173S351.393,70.5,256,70.5z M256,396.5
				c-84.364,0-153-68.636-153-153s68.636-153,153-153s153,68.636,153,153S340.364,396.5,256,396.5z"/>
			<path d="M192.929,180.929c-3.905,3.905-3.905,10.237,0,14.143l56,56c1.876,1.875,4.419,2.929,7.071,2.929h54
				c5.522,0,10-4.478,10-10c0-5.522-4.478-10-10-10h-49.857l-53.071-53.071C203.165,177.024,196.835,177.024,192.929,180.929z"/>
			<path d="M286,284h-60c-5.522,0-10,4.478-10,10c0,5.522,4.478,10,10,10h60c5.522,0,10-4.478,10-10
				C296,288.478,291.522,284,286,284z"/>
			<circle cx="502" cy="502" r="10"/>
			<circle cx="317" cy="350" r="10"/>
			<circle cx="362" cy="305" r="10"/>
			<circle cx="378" cy="244" r="10"/>
			<circle cx="362" cy="183" r="10"/>
			<circle cx="256" cy="122" r="10"/>
			<circle cx="195" cy="138" r="10"/>
			<circle cx="150" cy="183" r="10"/>
			<circle cx="134" cy="244" r="10"/>
			<circle cx="150" cy="305" r="10"/>
			<circle cx="195" cy="350" r="10"/>
			<circle cx="256" cy="366" r="10"/>
			<circle cx="317" cy="138" r="10"/>
		</g>
	</g>
</g>
<g>
</g>
<g>
</g>
<g>
</g>
<g>
</g>
<g>
</g>
<g>
</g>
<g>
</g>
<g>
</g>
<g>
</g>
<g>
</g>
<g>
</g>
<g>
</g>
<g>
</g>
<g>
</g>
<g>
</g>
</svg>
