<svg height="368pt" viewBox="0 0 368 368.00375" width="368pt" xmlns="http://www.w3.org/2000/svg"><path d="m5.265625 303.523438 176 64c.886719.320312 1.816406.480468 2.734375.480468.921875 0 1.851562-.160156 2.738281-.480468l176-64c3.160157-1.152344 5.261719-4.160157 5.261719-7.519532v-224c0-2.566406-1.230469-4.984375-3.316406-6.488281-2.097656-1.503906-4.785156-1.910156-7.210938-1.105469l-37.472656 12.488282v-68.894532c0-2.625-1.285156-5.082031-3.445312-6.574218-2.144532-1.4960942-4.890626-1.832032-7.367188-.921876l-125.1875 46.953126-125.183594-46.953126c-2.46875-.921874-5.214844-.5742182-7.367187.921876-2.160157 1.492187-3.449219 3.949218-3.449219 6.574218v68.894532l-37.46875-12.488282c-2.449219-.804687-5.113281-.40625-7.210938 1.105469-2.085937 1.503906-3.320312 3.921875-3.320312 6.488281v224c0 3.359375 2.105469 6.367188 5.265625 7.519532zm186.734375-50.105469 74.96875-29.980469c4.105469-1.648438 6.105469-6.296875 4.464844-10.402344-1.640625-4.101562-6.328125-6.070312-10.398438-4.457031l-69.035156 27.609375v-46.769531l74.96875-29.980469c4.105469-1.648438 6.105469-6.296875 4.464844-10.402344-1.640625-4.101562-6.328125-6.078125-10.398438-4.457031l-69.035156 27.609375v-46.769531l74.96875-29.980469c4.105469-1.648438 6.105469-6.296875 4.464844-10.402344-1.640625-4.101562-6.328125-6.078125-10.398438-4.457031l-69.035156 27.609375v-46.632812l112-42v238.914062l-112 42zm-128-233.871094 112 42v46.632813l-69.03125-27.617188c-4.078125-1.621094-8.757812.351562-10.398438 4.457031-1.640624 4.105469.359376 8.761719 4.464844 10.398438l74.964844 30v46.769531l-69.03125-27.617188c-4.078125-1.621093-8.757812.351563-10.398438 4.457032-1.640624 4.105468.359376 8.761718 4.464844 10.402344l74.964844 29.988281v46.769531l-69.03125-27.617188c-4.078125-1.621093-8.757812.351563-10.398438 4.457032-1.640624 4.105468.359376 8.761718 4.464844 10.402344l74.964844 29.988281v47.042969l-112-42zm-48 63.554687 32 10.671876v170.230468c0 3.335938 2.074219 6.320313 5.1875 7.496094l128 48c.910156.335938 1.863281.503906 2.8125.503906.953125 0 1.90625-.167968 2.816406-.503906l128-48c3.113282-1.175781 5.183594-4.160156 5.183594-7.496094v-170.230468l32-10.671876v207.300782l-168 61.089844-168-61.089844zm0 0"/></svg>