<svg id="Capa_1" enable-background="new 0 0 512 512" height="512" viewBox="0 0 512 512" width="512" xmlns="http://www.w3.org/2000/svg"><g><path d="m422 210c0-66.168-53.832-120-120-120s-120 53.832-120 120 53.832 120 120 120 120-53.832 120-120zm-135 45v-30h-30c-8.284 0-15-6.717-15-15 0-8.284 6.716-15 15-15h30v-30c0-8.284 6.716-15 15-15 8.283 0 15 6.716 15 15v30h30c8.283 0 15 6.716 15 15 0 8.283-6.717 15-15 15h-30v30c0 8.283-6.717 15-15 15-8.284 0-15-6.717-15-15z"/><path d="m302 420c115.795 0 210-94.206 210-210s-94.205-210-210-210-210 94.206-210 210 94.205 210 210 210zm-150-210c0-82.71 67.289-150 150-150s150 67.29 150 150-67.289 150-150 150-150-67.29-150-150z"/><path d="m68.033 507.605 99.148-99.148c-24.99-17.03-46.609-38.649-63.639-63.64l-99.149 99.15c-2.813 2.813-4.393 6.629-4.393 10.607s1.58 7.793 4.394 10.607l42.427 42.425c5.857 5.859 15.355 5.859 21.212-.001z"/></g></svg>