<?xml version="1.0" encoding="iso-8859-1"?>
<!-- Generator: Adobe Illustrator 19.0.0, SVG Export Plug-In . SVG Version: 6.00 Build 0)  -->
<svg version="1.1" id="Capa_1" xmlns="http://www.w3.org/2000/svg" xmlns:xlink="http://www.w3.org/1999/xlink" x="0px" y="0px"
	 viewBox="0 0 464 464" style="enable-background:new 0 0 464 464;" xml:space="preserve">
<g>
	<g>
		<path d="M200,32c-92.632,0-168,75.36-168,168c0,92.632,75.368,168,168,168s168-75.368,168-168C368,107.36,292.632,32,200,32z
			 M200,352c-83.816,0-152-68.184-152-152S116.184,48,200,48s152,68.184,152,152S283.816,352,200,352z"/>
	</g>
</g>
<g>
	<g>
		<path d="M173.656,98.344c-3.128-3.128-8.184-3.128-11.312,0l-64,64c-3.128,3.128-3.128,8.184,0,11.312
			c1.56,1.56,3.608,2.344,5.656,2.344c2.048,0,4.096-0.784,5.656-2.344l64-64C176.784,106.528,176.784,101.472,173.656,98.344z"/>
	</g>
</g>
<g>
	<g>
		<path d="M237.656,98.344c-3.128-3.128-8.184-3.128-11.312,0l-128,128c-3.128,3.128-3.128,8.184,0,11.312
			c1.56,1.56,3.608,2.344,5.656,2.344c2.048,0,4.096-0.784,5.656-2.344l128-128C240.784,106.528,240.784,101.472,237.656,98.344z"/>
	</g>
</g>
<g>
	<g>
		<path d="M452.28,376.968l-78.376-78.376C390.48,269.472,400,235.84,400,200C400,89.72,310.28,0,200,0S0,89.72,0,200
			s89.72,200,200,200c35.84,0,69.472-9.52,98.592-26.096l78.376,78.376c7.552,7.552,17.6,11.72,28.288,11.72H424
			c22.056,0,40-17.944,40-40v-18.744C464,394.568,459.832,384.52,452.28,376.968z M200,384C98.536,384,16,301.464,16,200
			C16,98.544,98.536,16,200,16s184,82.544,184,184C384,301.464,301.464,384,200,384z M448,424c0,13.232-10.768,24-24,24h-18.744
			c-6.416,0-12.448-2.504-16.976-7.032l-75.736-75.736c20.672-14.128,38.56-32.016,52.688-52.688l75.736,75.736
			c4.528,4.544,7.032,10.56,7.032,16.976V424z"/>
	</g>
</g>
<g>
</g>
<g>
</g>
<g>
</g>
<g>
</g>
<g>
</g>
<g>
</g>
<g>
</g>
<g>
</g>
<g>
</g>
<g>
</g>
<g>
</g>
<g>
</g>
<g>
</g>
<g>
</g>
<g>
</g>
</svg>
