<svg id="Capa_1" enable-background="new 0 0 512 512"  width="440" height="280" viewBox="0 100 512 512" xmlns="http://www.w3.org/2000/svg">
  <g><g><g>
  <path d="m99.295 391.072h39.095l33.882-46.914h-39.095z" fill="#414952"/>
  </g>
  <g>
    <path d="m412.706 391.072h-39.095l-33.882-46.914h39.095z" fill="#23272b"/>
      
    </g></g><g>
      <path d="m77 135.652h358v221.538h-358z" fill="#636978"/></g><g><path d="m256.121 135.652h178.88v221.538h-178.88z" fill="#414952"/></g><g><path d="m99.295 151.141h313.411v190.56h-313.411z" fill="#414952"/></g><g><path d="m256.121 151.141h156.585v190.56h-156.585z" fill="#23272b"/></g><g><path d="m256.156 319.682c-19.067.001-38.142-7.265-52.672-21.796-29.018-29.018-29.067-76.185-.11-105.144l21.214 21.213c-17.261 17.261-17.212 45.396.109 62.718 17.322 17.322 45.457 17.371 62.718.109 17.261-17.261 17.212-45.396-.109-62.718l21.213-21.213c29.019 29.018 29.068 76.186.109 105.144-14.459 14.459-33.461 21.686-52.472 21.687z" fill="#fff"/></g><g><path d="m308.517 192.852-21.213 21.213c17.321 17.322 17.37 45.457.109 62.718-8.62 8.62-19.951 12.922-31.293 12.913v29.985c.012 0 .023.001.035.001 19.011-.001 38.014-7.229 52.471-21.687 28.959-28.957 28.91-76.125-.109-105.143z" fill="#e9edf5"/></g><g><path d="m241 176.43h30v73.57h-30z" fill="#fff"/></g><g><path d="m256.121 176.43h14.88v73.57h-14.88z" fill="#e9edf5"/></g></g>
      <style>
        .heavy { font: bold 70px Karla sans-serif; color: black; }
      </style>
<text x="-52" y="480" class="heavy">Shutdown Extension</text>

</svg>