<?xml version="1.0" encoding="iso-8859-1"?>
<!-- Generator: Adobe Illustrator 18.0.0, SVG Export Plug-In . SVG Version: 6.00 Build 0)  -->
<!DOCTYPE svg PUBLIC "-//W3C//DTD SVG 1.1//EN" "http://www.w3.org/Graphics/SVG/1.1/DTD/svg11.dtd">
<svg version="1.1" id="Capa_1" xmlns="http://www.w3.org/2000/svg" xmlns:xlink="http://www.w3.org/1999/xlink" x="0px" y="0px"
	 viewBox="0 0 294.875 294.875" style="enable-background:new 0 0 294.875 294.875;" xml:space="preserve">
<g>
	<g>
		<path d="M206.96,12.564c0.303,2.439,0.477,4.917,0.477,7.437c0,11.997-3.553,23.173-9.642,32.558
			c33.928,18.081,57.079,53.825,57.079,94.879c0,59.241-48.196,107.438-107.438,107.438S40,206.679,40,147.437
			c0-10.74,1.588-21.115,4.536-30.907l-28.97-34.95C5.618,101.414,0,123.779,0,147.437c0,81.297,66.141,147.438,147.438,147.438
			s147.438-66.141,147.438-147.438C294.875,87.311,258.692,35.483,206.96,12.564z"/>
	</g>
	<path d="M113.345,147.437c0,18.829,15.264,34.092,34.092,34.092s34.092-15.264,34.092-34.092s-15.264-34.092-34.092-34.092
		c-0.709,0-1.411,0.029-2.109,0.071L68.358,19.952L37.481,45.38l76.961,93.453C113.728,141.582,113.345,144.465,113.345,147.437z"/>
	<circle cx="147.438" cy="20" r="20"/>
</g>
<g>
</g>
<g>
</g>
<g>
</g>
<g>
</g>
<g>
</g>
<g>
</g>
<g>
</g>
<g>
</g>
<g>
</g>
<g>
</g>
<g>
</g>
<g>
</g>
<g>
</g>
<g>
</g>
<g>
</g>
</svg>
